# xmcd
#
# Track frame offsets: 
#        150
#        17376
#        38427
#        57133
#        73607
#        90783
#        118167
#        141666
#        159504
#        175342
#        196084
#
# Disc length: 2835 seconds
#
# Revision: 0
# Processed by: cddbd v1.5.2PL0 Copyright (c) Steve Scherf et al.
# Submitted via: ExactAudioCopyFreeDBPlugin 1.0
#
DISCID=860b110b
DTITLE=Ben Blake - Blues Deluxe
DYEAR=1999
DGENRE=Blues
TTITLE0=Midnight (Part 2)
TTITLE1=Prime Time Love
TTITLE2=It Should Have Been Me
TTITLE3=Confusion
TTITLE4=New York Shuffle
TTITLE5=Snow Blind
TTITLE6=Tongue Tied
TTITLE7=Ms Strange
TTITLE8=Bakersfield Blues
TTITLE9=Late Night Lament
TTITLE10=Rasta Pasta
EXTD=
EXTT0=
EXTT1=
EXTT2=
EXTT3=
EXTT4=
EXTT5=
EXTT6=
EXTT7=
EXTT8=
EXTT9=
EXTT10=
PLAYORDER=
